# xmcd
#
# Track frame offsets: 
#        150
#        13897
#        32031
#        55362
#        71949
#        94883
#        111336
#        135944
#        154404
#        168837
#        185925
#
# Disc length: 2731 seconds
#
# Revision: 0
# Processed by: cddbd v1.5.2PL0 Copyright (c) Steve Scherf et al.
# Submitted via: ExactAudioCopy v0.99pb5
#
DISCID=a00aa90b
DTITLE=Forest Wayne Allen - On the Outskirts of Nowhere
DYEAR=2009
DGENRE=Texas Country
TTITLE0=1000 Miles Tonight
TTITLE1=7 Day Bender
TTITLE2=I Been All Over
TTITLE3=Steady
TTITLE4=Col, Col Feeling
TTITLE5=When I Lost You
TTITLE6=Plastic Flowers
TTITLE7=Jessie Rose
TTITLE8=Driving Through N.C.
TTITLE9=On Monday
TTITLE10=Smoke in My Eyes
EXTD=
EXTT0=
EXTT1=
EXTT2=
EXTT3=
EXTT4=
EXTT5=
EXTT6=
EXTT7=
EXTT8=
EXTT9=
EXTT10=
PLAYORDER=
